<svg width="106" height="114" viewBox="0 0 106 114" fill="none" xmlns="http://www.w3.org/2000/svg">
<path d="M35.5483 0.574951C8.78138 0.574951 0.150024 28.9321 0.150024 55.5531C0.150024 82.1742 6.59935 113.425 33.3662 113.425C60.1331 113.425 105.375 82.1644 105.375 55.5434C105.375 28.9224 62.3152 0.574951 35.5483 0.574951ZM48.6408 94.1343C27.2564 94.1343 9.84818 76.821 9.84818 55.5531C9.84818 34.2853 27.2564 16.9719 48.6408 16.9719C70.0252 16.9719 87.4334 34.2853 87.4334 55.5531C87.4334 76.821 70.0252 94.1343 48.6408 94.1343Z" fill="url(#paint0_linear)"/>
<path d="M22.4547 58.2948C21.4814 59.5647 21.7269 61.3788 23.0032 62.3476L32.3292 69.4267C33.5465 70.3507 35.2756 70.1781 36.284 69.032L54.7334 48.0618C55.792 46.8586 55.6688 45.0296 54.4583 43.9775C53.2489 42.9265 51.4119 43.0489 50.3543 44.251L33.695 63.1864L26.5323 57.7491C25.2549 56.7794 23.4289 57.0238 22.4547 58.2948ZM75.0995 48.0618C76.1581 46.8586 76.0349 45.0296 74.8244 43.9775C73.615 42.9265 71.7781 43.0489 70.7205 44.251L54.1048 63.1372L52.3668 61.731C51.1154 60.7186 49.2742 60.9143 48.2663 62.1669C47.2669 63.409 47.4654 65.2209 48.7103 66.2198L52.6391 69.3721C53.8544 70.3473 55.6271 70.1943 56.6555 69.0255L75.0995 48.0618Z" fill="url(#paint1_linear)"/>
<defs>
<linearGradient id="paint0_linear" x1="52.7625" y1="0.574951" x2="52.7625" y2="113.425" gradientUnits="userSpaceOnUse">
<stop stop-color="#BC42F0"/>
<stop offset="1" stop-color="#4D24E8"/>
</linearGradient>
<linearGradient id="paint1_linear" x1="52.7625" y1="0.574951" x2="52.7625" y2="113.425" gradientUnits="userSpaceOnUse">
<stop stop-color="#BC42F0"/>
<stop offset="1" stop-color="#4D24E8"/>
</linearGradient>
</defs>
</svg>
