<svg width="590" height="82" viewBox="0 0 590 82" fill="none" xmlns="http://www.w3.org/2000/svg">
<path d="M118.616 21.0081C124.44 21.0081 128.984 22.5121 132.248 25.5201C135.576 28.5281 137.24 33.3921 137.24 40.1121V74.0001H125.144V42.5121C125.144 34.7041 121.944 30.8001 115.544 30.8001C110.68 30.8001 107.352 32.3361 105.56 35.4081C103.768 38.4801 102.872 42.8641 102.872 48.5601V74.0001H90.7759V21.9681H100.088L101.816 28.7841H102.488C104.152 26.0961 106.424 24.1441 109.304 22.9281C112.248 21.6481 115.352 21.0081 118.616 21.0081Z" fill="#3D3D3D"/>
<path d="M199.834 47.8881C199.834 56.5281 197.594 63.2161 193.114 67.9521C188.634 72.6241 182.554 74.9601 174.874 74.9601C170.138 74.9601 165.914 73.9041 162.202 71.7921C158.49 69.6801 155.578 66.6081 153.466 62.5761C151.354 58.5441 150.298 53.6481 150.298 47.8881C150.298 39.2481 152.506 32.6241 156.922 28.0161C161.402 23.3441 167.482 21.0081 175.162 21.0081C179.962 21.0081 184.218 22.0641 187.93 24.1761C191.642 26.2241 194.554 29.2641 196.666 33.2961C198.778 37.2641 199.834 42.1281 199.834 47.8881ZM162.682 47.8881C162.682 53.3921 163.642 57.6481 165.562 60.6561C167.546 63.6641 170.714 65.1681 175.066 65.1681C179.418 65.1681 182.554 63.6641 184.474 60.6561C186.458 57.6481 187.45 53.3921 187.45 47.8881C187.45 42.3841 186.458 38.1601 184.474 35.2161C182.554 32.2721 179.386 30.8001 174.97 30.8001C170.682 30.8001 167.546 32.2721 165.562 35.2161C163.642 38.1601 162.682 42.3841 162.682 47.8881Z" fill="#3D3D3D"/>
<path d="M233.498 65.2641C234.97 65.2641 236.41 65.1361 237.818 64.8801C239.29 64.5601 240.634 64.2081 241.85 63.8241V72.8481C240.57 73.4241 238.906 73.9041 236.858 74.2881C234.81 74.7361 232.666 74.9601 230.426 74.9601C227.482 74.9601 224.794 74.4801 222.362 73.5201C219.93 72.4961 218.01 70.7681 216.602 68.3361C215.194 65.9041 214.49 62.5121 214.49 58.1601V31.0881H207.482V25.8081L215.162 21.5841L219.002 10.5441H226.586V21.9681H241.37V31.0881H226.586V58.0641C226.586 60.4961 227.226 62.32 228.506 63.536C229.786 64.688 231.45 65.2641 233.498 65.2641Z" fill="#3D3D3D"/>
<path d="M259.386 1.90406C261.242 1.90406 262.81 2.38406 264.09 3.34406C265.434 4.24006 266.106 5.87206 266.106 8.24006C266.106 10.6081 265.434 12.2721 264.09 13.2321C262.81 14.1921 261.242 14.6721 259.386 14.6721C257.53 14.6721 255.93 14.1921 254.586 13.2321C253.306 12.2721 252.666 10.6081 252.666 8.24006C252.666 5.87206 253.306 4.24006 254.586 3.34406C255.93 2.38406 257.53 1.90406 259.386 1.90406ZM265.434 21.9681V74.0001H253.338V21.9681H265.434Z" fill="#3D3D3D"/>
<path d="M308.877 31.0881H296.301V74.0001H284.205V31.0881H275.853V25.3281L284.205 21.8721V18.3201C284.205 11.6641 285.773 7.05606 288.909 4.49606C292.109 1.87206 296.461 0.560059 301.965 0.560059C304.461 0.560059 306.733 0.78406 308.781 1.23206C310.893 1.61606 312.621 2.06406 313.965 2.57606L310.893 11.6001C309.805 11.2801 308.589 10.9921 307.245 10.7361C305.965 10.4161 304.557 10.2561 303.021 10.2561C300.717 10.2561 299.021 10.9921 297.933 12.4641C296.845 13.8721 296.301 15.9201 296.301 18.6081V21.9681H308.877V31.0881ZM323.565 1.90406C325.421 1.90406 326.989 2.38406 328.269 3.34406C329.613 4.24006 330.285 5.87206 330.285 8.24006C330.285 10.6081 329.613 12.2721 328.269 13.2321C326.989 14.1921 325.421 14.6721 323.565 14.6721C321.709 14.6721 320.109 14.1921 318.765 13.2321C317.485 12.2721 316.845 10.6081 316.845 8.24006C316.845 5.87206 317.485 4.24006 318.765 3.34406C320.109 2.38406 321.709 1.90406 323.565 1.90406ZM329.613 21.9681V74.0001H317.517V21.9681H329.613Z" fill="#3D3D3D"/>
<path d="M367.112 74.9601C359.624 74.9601 353.736 72.8161 349.448 68.5281C345.16 64.2401 343.016 57.4881 343.016 48.2721C343.016 41.8721 344.072 36.6881 346.184 32.7201C348.36 28.6881 351.336 25.7441 355.112 23.8881C358.888 21.9681 363.208 21.0081 368.072 21.0081C371.336 21.0081 374.248 21.3281 376.808 21.9681C379.368 22.6081 381.544 23.3761 383.336 24.2721L379.784 33.7761C377.8 33.0081 375.816 32.3681 373.832 31.8561C371.848 31.2801 369.928 30.9921 368.072 30.9921C359.624 30.9921 355.4 36.7201 355.4 48.1761C355.4 53.7441 356.456 57.9361 358.568 60.7521C360.744 63.5681 363.848 64.9761 367.88 64.9761C370.76 64.9761 373.32 64.6241 375.56 63.9201C377.8 63.2161 379.944 62.2561 381.992 61.0401V71.5041C380.008 72.6561 377.864 73.5201 375.56 74.0961C373.32 74.6721 370.504 74.9601 367.112 74.9601Z" fill="#3D3D3D"/>
<path d="M415.918 21.0081C422.638 21.0081 427.726 22.4801 431.182 25.4241C434.702 28.3681 436.462 32.9121 436.462 39.0561V74.0001H427.918L425.518 66.8001H425.134C422.894 69.6161 420.526 71.6961 418.03 73.0401C415.534 74.3201 412.142 74.9601 407.854 74.9601C403.182 74.9601 399.31 73.6481 396.238 71.0241C393.166 68.4001 391.63 64.3361 391.63 58.8321C391.63 53.4561 393.582 49.4241 397.486 46.7361C401.454 44.0481 407.438 42.5441 415.438 42.2241L424.462 41.9361V39.3441C424.462 36.0801 423.662 33.7441 422.062 32.3361C420.462 30.8641 418.222 30.1281 415.342 30.1281C412.718 30.1281 410.19 30.5121 407.758 31.2801C405.39 32.0481 403.022 32.9441 400.654 33.9681L396.814 25.5201C399.374 24.1761 402.286 23.0881 405.55 22.2561C408.878 21.4241 412.334 21.0081 415.918 21.0081ZM424.462 49.4241L418.126 49.6161C412.814 49.8081 409.134 50.7361 407.086 52.4001C405.038 54.0001 404.014 56.1761 404.014 58.9281C404.014 61.4241 404.718 63.2161 406.126 64.3041C407.598 65.3281 409.518 65.8401 411.886 65.8401C415.406 65.8401 418.382 64.8481 420.814 62.8641C423.246 60.8161 424.462 57.8081 424.462 53.8401V49.4241Z" fill="#3D3D3D"/>
<path d="M512.236 21.0081C518.124 21.0081 522.54 22.5121 525.484 25.5201C528.492 28.5281 529.996 33.3921 529.996 40.1121V74.0001H517.9V42.4161C517.9 34.6721 514.956 30.8001 509.068 30.8001C504.844 30.8001 501.836 32.1761 500.044 34.9281C498.252 37.6801 497.356 41.6801 497.356 46.9281V74.0001H485.26V42.4161C485.26 34.6721 482.284 30.8001 476.332 30.8001C471.916 30.8001 468.876 32.3361 467.212 35.4081C465.548 38.4801 464.716 42.8641 464.716 48.5601V74.0001H452.62V21.9681H461.932L463.66 28.7841H464.332C465.868 26.0961 468.012 24.1441 470.764 22.9281C473.58 21.6481 476.492 21.0081 479.5 21.0081C483.404 21.0081 486.668 21.6801 489.292 23.0241C491.98 24.3041 494.028 26.3201 495.436 29.0721H496.396C497.996 26.2561 500.236 24.2081 503.116 22.9281C505.996 21.6481 509.036 21.0081 512.236 21.0081Z" fill="#3D3D3D"/>
<path d="M567.079 21.0081C574.055 21.0081 579.559 23.0881 583.591 27.2481C587.687 31.4081 589.735 37.2001 589.735 44.6241V50.7681H555.367C555.495 55.5041 556.807 59.1841 559.303 61.8081C561.799 64.3681 565.255 65.6481 569.671 65.6481C572.999 65.6481 576.007 65.3281 578.695 64.6881C581.383 63.9841 584.135 62.9921 586.951 61.7121V71.4081C584.391 72.6241 581.735 73.5201 578.983 74.0961C576.231 74.6721 572.935 74.9601 569.095 74.9601C564.039 74.9601 559.527 74.0001 555.559 72.0801C551.655 70.0961 548.583 67.1201 546.343 63.1521C544.167 59.1841 543.079 54.2561 543.079 48.3681C543.079 39.4721 545.287 32.6881 549.703 28.0161C554.119 23.3441 559.911 21.0081 567.079 21.0081ZM567.079 29.9361C563.815 29.9361 561.159 30.9921 559.111 33.1041C557.127 35.1521 555.975 38.2241 555.655 42.3201H578.023C577.959 38.7361 577.031 35.7921 575.239 33.4881C573.511 31.1201 570.791 29.9361 567.079 29.9361Z" fill="#3D3D3D"/>
<path d="M23.212 8C5.65991 8 0 26.5949 0 44.0513C0 61.5077 4.22906 82 21.7811 82C39.3332 82 69 61.5013 69 44.0449C69 26.5885 40.764 8 23.212 8ZM31.7972 69.3504C17.7746 69.3504 6.35944 57.9974 6.35944 44.0513C6.35944 30.1051 17.7746 18.7521 31.7972 18.7521C45.8198 18.7521 57.235 30.1051 57.235 44.0513C57.235 57.9974 45.8198 69.3504 31.7972 69.3504Z" fill="#3D3D3D"/>
<path d="M14.626 45.8491C13.9878 46.6818 14.1488 47.8714 14.9857 48.5067L21.1011 53.1487C21.8993 53.7546 23.0332 53.6414 23.6944 52.8899L35.7924 39.1389C36.4866 38.3499 36.4058 37.1506 35.612 36.4607C34.8189 35.7715 33.6144 35.8518 32.9209 36.64L21.9967 49.0567L17.2999 45.4912C16.4622 44.8554 15.2648 45.0156 14.626 45.8491ZM49.1472 39.1389C49.8414 38.3499 49.7606 37.1506 48.9668 36.4607C48.1738 35.7715 46.9692 35.8518 46.2757 36.64L35.3802 49.0245L34.2405 48.1023C33.4199 47.4384 32.2126 47.5668 31.5517 48.3882C30.8963 49.2027 31.0265 50.3908 31.8428 51.0458L34.419 53.1129C35.216 53.7524 36.3784 53.652 37.0527 52.8856L49.1472 39.1389Z" fill="#3D3D3D"/>
</svg>
