<svg width="590" height="82" viewBox="0 0 590 82" fill="none" xmlns="http://www.w3.org/2000/svg">
<path d="M118.616 20.448C124.44 20.448 128.984 21.952 132.248 24.96C135.576 27.968 137.24 32.832 137.24 39.552V73.44H125.144V41.952C125.144 34.144 121.944 30.24 115.544 30.24C110.68 30.24 107.352 31.776 105.56 34.848C103.768 37.92 102.872 42.304 102.872 48V73.44H90.7759V21.408H100.088L101.816 28.224H102.488C104.152 25.536 106.424 23.584 109.304 22.368C112.248 21.088 115.352 20.448 118.616 20.448Z" fill="white"/>
<path d="M199.834 47.328C199.834 55.968 197.594 62.656 193.114 67.392C188.634 72.064 182.554 74.4 174.874 74.4C170.138 74.4 165.914 73.344 162.202 71.232C158.49 69.12 155.578 66.048 153.466 62.016C151.354 57.984 150.298 53.088 150.298 47.328C150.298 38.688 152.506 32.064 156.922 27.456C161.402 22.784 167.482 20.448 175.162 20.448C179.962 20.448 184.218 21.504 187.93 23.616C191.642 25.664 194.554 28.704 196.666 32.736C198.778 36.704 199.834 41.568 199.834 47.328ZM162.682 47.328C162.682 52.832 163.642 57.088 165.562 60.096C167.546 63.104 170.714 64.608 175.066 64.608C179.418 64.608 182.554 63.104 184.474 60.096C186.458 57.088 187.45 52.832 187.45 47.328C187.45 41.824 186.458 37.6 184.474 34.656C182.554 31.712 179.386 30.24 174.97 30.24C170.682 30.24 167.546 31.712 165.562 34.656C163.642 37.6 162.682 41.824 162.682 47.328Z" fill="white"/>
<path d="M233.498 64.704C234.97 64.704 236.41 64.576 237.818 64.32C239.29 64 240.634 63.648 241.85 63.264V72.288C240.57 72.864 238.906 73.344 236.858 73.728C234.81 74.176 232.666 74.4 230.426 74.4C227.482 74.4 224.794 73.92 222.362 72.96C219.93 71.936 218.01 70.208 216.602 67.776C215.194 65.344 214.49 61.952 214.49 57.6V30.528H207.482V25.248L215.162 21.024L219.002 9.984H226.586V21.408H241.37V30.528H226.586V57.504C226.586 59.936 227.226 61.76 228.506 62.976C229.786 64.128 231.45 64.704 233.498 64.704Z" fill="white"/>
<path d="M259.386 1.344C261.242 1.344 262.81 1.824 264.09 2.784C265.434 3.68 266.106 5.312 266.106 7.68C266.106 10.048 265.434 11.712 264.09 12.672C262.81 13.632 261.242 14.112 259.386 14.112C257.53 14.112 255.93 13.632 254.586 12.672C253.306 11.712 252.666 10.048 252.666 7.68C252.666 5.312 253.306 3.68 254.586 2.784C255.93 1.824 257.53 1.344 259.386 1.344ZM265.434 21.408V73.44H253.338V21.408H265.434Z" fill="white"/>
<path d="M308.877 30.528H296.301V73.44H284.205V30.528H275.853V24.768L284.205 21.312V17.76C284.205 11.104 285.773 6.496 288.909 3.936C292.109 1.312 296.461 0 301.965 0C304.461 0 306.733 0.224001 308.781 0.672003C310.893 1.056 312.621 1.504 313.965 2.016L310.893 11.04C309.805 10.72 308.589 10.432 307.245 10.176C305.965 9.856 304.557 9.696 303.021 9.696C300.717 9.696 299.021 10.432 297.933 11.904C296.845 13.312 296.301 15.36 296.301 18.048V21.408H308.877V30.528ZM323.565 1.344C325.421 1.344 326.989 1.824 328.269 2.784C329.613 3.68 330.285 5.312 330.285 7.68C330.285 10.048 329.613 11.712 328.269 12.672C326.989 13.632 325.421 14.112 323.565 14.112C321.709 14.112 320.109 13.632 318.765 12.672C317.485 11.712 316.845 10.048 316.845 7.68C316.845 5.312 317.485 3.68 318.765 2.784C320.109 1.824 321.709 1.344 323.565 1.344ZM329.613 21.408V73.44H317.517V21.408H329.613Z" fill="white"/>
<path d="M367.112 74.4C359.624 74.4 353.736 72.256 349.448 67.968C345.16 63.68 343.016 56.928 343.016 47.712C343.016 41.312 344.072 36.128 346.184 32.16C348.36 28.128 351.336 25.184 355.112 23.328C358.888 21.408 363.208 20.448 368.072 20.448C371.336 20.448 374.248 20.768 376.808 21.408C379.368 22.048 381.544 22.816 383.336 23.712L379.784 33.216C377.8 32.448 375.816 31.808 373.832 31.296C371.848 30.72 369.928 30.432 368.072 30.432C359.624 30.432 355.4 36.16 355.4 47.616C355.4 53.184 356.456 57.376 358.568 60.192C360.744 63.008 363.848 64.416 367.88 64.416C370.76 64.416 373.32 64.064 375.56 63.36C377.8 62.656 379.944 61.696 381.992 60.48V70.944C380.008 72.096 377.864 72.96 375.56 73.536C373.32 74.112 370.504 74.4 367.112 74.4Z" fill="white"/>
<path d="M415.918 20.448C422.638 20.448 427.726 21.92 431.182 24.864C434.702 27.808 436.462 32.352 436.462 38.496V73.44H427.918L425.518 66.24H425.134C422.894 69.056 420.526 71.136 418.03 72.48C415.534 73.76 412.142 74.4 407.854 74.4C403.182 74.4 399.31 73.088 396.238 70.464C393.166 67.84 391.63 63.776 391.63 58.272C391.63 52.896 393.582 48.864 397.486 46.176C401.454 43.488 407.438 41.984 415.438 41.664L424.462 41.376V38.784C424.462 35.52 423.662 33.184 422.062 31.776C420.462 30.304 418.222 29.568 415.342 29.568C412.718 29.568 410.19 29.952 407.758 30.72C405.39 31.488 403.022 32.384 400.654 33.408L396.814 24.96C399.374 23.616 402.286 22.528 405.55 21.696C408.878 20.864 412.334 20.448 415.918 20.448ZM424.462 48.864L418.126 49.056C412.814 49.248 409.134 50.176 407.086 51.84C405.038 53.44 404.014 55.616 404.014 58.368C404.014 60.864 404.718 62.656 406.126 63.744C407.598 64.768 409.518 65.28 411.886 65.28C415.406 65.28 418.382 64.288 420.814 62.304C423.246 60.256 424.462 57.248 424.462 53.28V48.864Z" fill="white"/>
<path d="M512.236 20.448C518.124 20.448 522.54 21.952 525.484 24.96C528.492 27.968 529.996 32.832 529.996 39.552V73.44H517.9V41.856C517.9 34.112 514.956 30.24 509.068 30.24C504.844 30.24 501.836 31.616 500.044 34.368C498.252 37.12 497.356 41.12 497.356 46.368V73.44H485.26V41.856C485.26 34.112 482.284 30.24 476.332 30.24C471.916 30.24 468.876 31.776 467.212 34.848C465.548 37.92 464.716 42.304 464.716 48V73.44H452.62V21.408H461.932L463.66 28.224H464.332C465.868 25.536 468.012 23.584 470.764 22.368C473.58 21.088 476.492 20.448 479.5 20.448C483.404 20.448 486.668 21.12 489.292 22.464C491.98 23.744 494.028 25.76 495.436 28.512H496.396C497.996 25.696 500.236 23.648 503.116 22.368C505.996 21.088 509.036 20.448 512.236 20.448Z" fill="white"/>
<path d="M567.079 20.448C574.055 20.448 579.559 22.528 583.591 26.688C587.687 30.848 589.735 36.64 589.735 44.064V50.208H555.367C555.495 54.944 556.807 58.624 559.303 61.248C561.799 63.808 565.255 65.088 569.671 65.088C572.999 65.088 576.007 64.768 578.695 64.128C581.383 63.424 584.135 62.432 586.951 61.152V70.848C584.391 72.064 581.735 72.96 578.983 73.536C576.231 74.112 572.935 74.4 569.095 74.4C564.039 74.4 559.527 73.44 555.559 71.52C551.655 69.536 548.583 66.56 546.343 62.592C544.167 58.624 543.079 53.696 543.079 47.808C543.079 38.912 545.287 32.128 549.703 27.456C554.119 22.784 559.911 20.448 567.079 20.448ZM567.079 29.376C563.815 29.376 561.159 30.432 559.111 32.544C557.127 34.592 555.975 37.664 555.655 41.76H578.023C577.959 38.176 577.031 35.232 575.239 32.928C573.511 30.56 570.791 29.376 567.079 29.376Z" fill="white"/>
<path d="M23.212 7.43994C5.65991 7.43994 0 26.0348 0 43.4912C0 60.9476 4.22906 81.4399 21.7811 81.4399C39.3332 81.4399 69 60.9412 69 43.4848C69 26.0284 40.764 7.43994 23.212 7.43994ZM31.7972 68.7904C17.7746 68.7904 6.35944 57.4374 6.35944 43.4912C6.35944 29.5451 17.7746 18.1921 31.7972 18.1921C45.8198 18.1921 57.235 29.5451 57.235 43.4912C57.235 57.4374 45.8198 68.7904 31.7972 68.7904Z" fill="white"/>
<path d="M14.626 45.289C13.9878 46.1218 14.1488 47.3113 14.9857 47.9466L21.1011 52.5886C21.8993 53.1945 23.0332 53.0814 23.6944 52.3298L35.7924 38.5789C36.4866 37.7899 36.4058 36.5905 35.612 35.9007C34.8189 35.2114 33.6144 35.2917 32.9209 36.08L21.9967 48.4967L17.2999 44.9312C16.4622 44.2953 15.2648 44.4556 14.626 45.289ZM49.1472 38.5789C49.8414 37.7899 49.7606 36.5905 48.9668 35.9007C48.1738 35.2114 46.9692 35.2917 46.2757 36.08L35.3802 48.4644L34.2405 47.5423C33.4199 46.8784 32.2126 47.0067 31.5517 47.8281C30.8963 48.6426 31.0265 49.8308 31.8428 50.4858L34.419 52.5528C35.216 53.1923 36.3784 53.092 37.0527 52.3256L49.1472 38.5789Z" fill="white"/>
</svg>
