<svg width="590" height="82" viewBox="0 0 590 82" fill="none" xmlns="http://www.w3.org/2000/svg">
<path d="M118.84 20.448C124.664 20.448 129.208 21.952 132.472 24.96C135.8 27.968 137.464 32.832 137.464 39.552V73.44H125.368V41.952C125.368 34.144 122.168 30.24 115.768 30.24C110.904 30.24 107.576 31.776 105.784 34.848C103.992 37.92 103.096 42.304 103.096 48V73.44H91V21.408H100.312L102.04 28.224H102.712C104.376 25.536 106.648 23.584 109.528 22.368C112.472 21.088 115.576 20.448 118.84 20.448Z" fill="url(#paint0_linear)"/>
<path d="M200.058 47.328C200.058 55.968 197.818 62.656 193.338 67.392C188.858 72.064 182.778 74.4 175.098 74.4C170.362 74.4 166.138 73.344 162.426 71.232C158.714 69.12 155.802 66.048 153.69 62.016C151.578 57.984 150.522 53.088 150.522 47.328C150.522 38.688 152.73 32.064 157.146 27.456C161.626 22.784 167.706 20.448 175.386 20.448C180.186 20.448 184.442 21.504 188.154 23.616C191.866 25.664 194.778 28.704 196.89 32.736C199.002 36.704 200.058 41.568 200.058 47.328ZM162.906 47.328C162.906 52.832 163.866 57.088 165.786 60.096C167.77 63.104 170.938 64.608 175.29 64.608C179.642 64.608 182.778 63.104 184.698 60.096C186.682 57.088 187.674 52.832 187.674 47.328C187.674 41.824 186.682 37.6 184.698 34.656C182.778 31.712 179.61 30.24 175.194 30.24C170.906 30.24 167.77 31.712 165.786 34.656C163.866 37.6 162.906 41.824 162.906 47.328Z" fill="url(#paint1_linear)"/>
<path d="M233.723 64.704C235.195 64.704 236.635 64.576 238.043 64.32C239.515 64 240.859 63.648 242.075 63.264V72.288C240.795 72.864 239.131 73.344 237.083 73.728C235.035 74.176 232.891 74.4 230.65 74.4C227.706 74.4 225.019 73.92 222.587 72.96C220.154 71.936 218.235 70.208 216.827 67.776C215.419 65.344 214.715 61.952 214.715 57.6V30.528H207.706V25.248L215.387 21.024L219.227 9.984H226.811V21.408H241.595V30.528H226.811V57.504C226.811 59.936 227.451 61.76 228.73 62.976C230.01 64.128 231.674 64.704 233.723 64.704Z" fill="url(#paint2_linear)"/>
<path d="M259.611 1.344C261.467 1.344 263.035 1.824 264.315 2.784C265.659 3.68 266.331 5.312 266.331 7.68C266.331 10.048 265.659 11.712 264.315 12.672C263.035 13.632 261.467 14.112 259.611 14.112C257.755 14.112 256.155 13.632 254.811 12.672C253.531 11.712 252.891 10.048 252.891 7.68C252.891 5.312 253.531 3.68 254.811 2.784C256.155 1.824 257.755 1.344 259.611 1.344ZM265.659 21.408V73.44H253.562V21.408H265.659Z" fill="url(#paint3_linear)"/>
<path d="M309.101 30.528H296.525V73.44H284.429V30.528H276.077V24.768L284.429 21.312V17.76C284.429 11.104 285.997 6.496 289.133 3.936C292.333 1.312 296.685 0 302.189 0C304.685 0 306.957 0.224001 309.005 0.672003C311.117 1.056 312.845 1.504 314.189 2.016L311.117 11.04C310.029 10.72 308.813 10.432 307.469 10.176C306.189 9.856 304.781 9.696 303.245 9.696C300.941 9.696 299.245 10.432 298.157 11.904C297.069 13.312 296.525 15.36 296.525 18.048V21.408H309.101V30.528ZM323.789 1.344C325.645 1.344 327.213 1.824 328.493 2.784C329.837 3.68 330.509 5.312 330.509 7.68C330.509 10.048 329.837 11.712 328.493 12.672C327.213 13.632 325.645 14.112 323.789 14.112C321.933 14.112 320.333 13.632 318.989 12.672C317.709 11.712 317.069 10.048 317.069 7.68C317.069 5.312 317.709 3.68 318.989 2.784C320.333 1.824 321.933 1.344 323.789 1.344ZM329.837 21.408V73.44H317.741V21.408H329.837Z" fill="url(#paint4_linear)"/>
<path d="M367.336 74.4C359.848 74.4 353.96 72.256 349.672 67.968C345.384 63.68 343.24 56.928 343.24 47.712C343.24 41.312 344.297 36.128 346.409 32.16C348.585 28.128 351.56 25.184 355.336 23.328C359.112 21.408 363.432 20.448 368.297 20.448C371.561 20.448 374.473 20.768 377.033 21.408C379.593 22.048 381.768 22.816 383.56 23.712L380.008 33.216C378.024 32.448 376.041 31.808 374.057 31.296C372.073 30.72 370.152 30.432 368.297 30.432C359.849 30.432 355.625 36.16 355.625 47.616C355.625 53.184 356.68 57.376 358.792 60.192C360.968 63.008 364.072 64.416 368.104 64.416C370.984 64.416 373.544 64.064 375.784 63.36C378.024 62.656 380.168 61.696 382.216 60.48V70.944C380.232 72.096 378.089 72.96 375.784 73.536C373.544 74.112 370.728 74.4 367.336 74.4Z" fill="url(#paint5_linear)"/>
<path d="M416.142 20.448C422.862 20.448 427.95 21.92 431.406 24.864C434.926 27.808 436.686 32.352 436.686 38.496V73.44H428.142L425.742 66.24H425.358C423.118 69.056 420.75 71.136 418.254 72.48C415.758 73.76 412.366 74.4 408.078 74.4C403.406 74.4 399.534 73.088 396.462 70.464C393.39 67.84 391.854 63.776 391.854 58.272C391.854 52.896 393.806 48.864 397.71 46.176C401.678 43.488 407.662 41.984 415.662 41.664L424.686 41.376V38.784C424.686 35.52 423.886 33.184 422.286 31.776C420.686 30.304 418.446 29.568 415.566 29.568C412.942 29.568 410.414 29.952 407.982 30.72C405.614 31.488 403.246 32.384 400.878 33.408L397.038 24.96C399.598 23.616 402.51 22.528 405.774 21.696C409.102 20.864 412.558 20.448 416.142 20.448ZM424.686 48.864L418.35 49.056C413.038 49.248 409.358 50.176 407.31 51.84C405.262 53.44 404.238 55.616 404.238 58.368C404.238 60.864 404.942 62.656 406.35 63.744C407.822 64.768 409.742 65.28 412.11 65.28C415.63 65.28 418.606 64.288 421.038 62.304C423.47 60.256 424.686 57.248 424.686 53.28V48.864Z" fill="url(#paint6_linear)"/>
<path d="M512.46 20.448C518.348 20.448 522.764 21.952 525.708 24.96C528.716 27.968 530.22 32.832 530.22 39.552V73.44H518.124V41.856C518.124 34.112 515.18 30.24 509.292 30.24C505.068 30.24 502.06 31.616 500.268 34.368C498.476 37.12 497.58 41.12 497.58 46.368V73.44H485.484V41.856C485.484 34.112 482.508 30.24 476.556 30.24C472.14 30.24 469.1 31.776 467.436 34.848C465.772 37.92 464.94 42.304 464.94 48V73.44H452.844V21.408H462.156L463.884 28.224H464.556C466.092 25.536 468.236 23.584 470.988 22.368C473.804 21.088 476.716 20.448 479.724 20.448C483.628 20.448 486.892 21.12 489.516 22.464C492.204 23.744 494.252 25.76 495.66 28.512H496.62C498.22 25.696 500.46 23.648 503.34 22.368C506.22 21.088 509.26 20.448 512.46 20.448Z" fill="url(#paint7_linear)"/>
<path d="M567.303 20.448C574.279 20.448 579.783 22.528 583.815 26.688C587.911 30.848 589.959 36.64 589.959 44.064V50.208H555.591C555.719 54.944 557.031 58.624 559.527 61.248C562.023 63.808 565.479 65.088 569.895 65.088C573.223 65.088 576.231 64.768 578.919 64.128C581.607 63.424 584.359 62.432 587.175 61.152V70.848C584.615 72.064 581.959 72.96 579.207 73.536C576.455 74.112 573.159 74.4 569.319 74.4C564.263 74.4 559.751 73.44 555.783 71.52C551.879 69.536 548.807 66.56 546.567 62.592C544.391 58.624 543.303 53.696 543.303 47.808C543.303 38.912 545.511 32.128 549.927 27.456C554.343 22.784 560.135 20.448 567.303 20.448ZM567.303 29.376C564.039 29.376 561.383 30.432 559.335 32.544C557.351 34.592 556.199 37.664 555.879 41.76H578.247C578.183 38.176 577.255 35.232 575.463 32.928C573.735 30.56 571.015 29.376 567.303 29.376Z" fill="url(#paint8_linear)"/>
<path d="M23.212 7.68C5.65991 7.68 0 26.2749 0 43.7313C0 61.1877 4.22907 81.68 21.7811 81.68C39.3332 81.68 69 61.1813 69 43.7249C69 26.2685 40.764 7.68 23.212 7.68ZM31.7972 69.0304C17.7746 69.0304 6.35944 57.6774 6.35944 43.7313C6.35944 29.7851 17.7746 18.4321 31.7972 18.4321C45.8198 18.4321 57.235 29.7851 57.235 43.7313C57.235 57.6774 45.8198 69.0304 31.7972 69.0304Z" fill="url(#paint9_linear)"/>
<path d="M14.626 45.5291C13.9878 46.3618 14.1488 47.5514 14.9857 48.1867L21.1011 52.8287C21.8993 53.4346 23.0332 53.3214 23.6944 52.5699L35.7924 38.8189C36.4866 38.0299 36.4058 36.8306 35.612 36.1407C34.8189 35.4515 33.6144 35.5318 32.9209 36.32L21.9967 48.7367L17.2998 45.1712C16.4622 44.5354 15.2648 44.6956 14.626 45.5291ZM49.1472 38.8189C49.8414 38.0299 49.7606 36.8306 48.9668 36.1407C48.1738 35.4515 46.9692 35.5318 46.2757 36.32L35.3802 48.7045L34.2405 47.7823C33.4199 47.1185 32.2126 47.2468 31.5517 48.0682C30.8963 48.8827 31.0265 50.0708 31.8428 50.7258L34.419 52.7929C35.216 53.4324 36.3784 53.332 37.0528 52.5656L49.1472 38.8189Z" fill="url(#paint10_linear)"/>
<defs>
<linearGradient id="paint0_linear" x1="34.5" y1="10" x2="34.5" y2="84" gradientUnits="userSpaceOnUse">
<stop stop-color="#BC42F0"/>
<stop offset="1" stop-color="#4D24E8"/>
</linearGradient>
<linearGradient id="paint1_linear" x1="34.5" y1="10" x2="34.5" y2="84" gradientUnits="userSpaceOnUse">
<stop stop-color="#BC42F0"/>
<stop offset="1" stop-color="#4D24E8"/>
</linearGradient>
<linearGradient id="paint2_linear" x1="34.5" y1="10" x2="34.5" y2="84" gradientUnits="userSpaceOnUse">
<stop stop-color="#BC42F0"/>
<stop offset="1" stop-color="#4D24E8"/>
</linearGradient>
<linearGradient id="paint3_linear" x1="34.5" y1="10" x2="34.5" y2="84" gradientUnits="userSpaceOnUse">
<stop stop-color="#BC42F0"/>
<stop offset="1" stop-color="#4D24E8"/>
</linearGradient>
<linearGradient id="paint4_linear" x1="34.5" y1="10" x2="34.5" y2="84" gradientUnits="userSpaceOnUse">
<stop stop-color="#BC42F0"/>
<stop offset="1" stop-color="#4D24E8"/>
</linearGradient>
<linearGradient id="paint5_linear" x1="34.5" y1="10" x2="34.5" y2="84" gradientUnits="userSpaceOnUse">
<stop stop-color="#BC42F0"/>
<stop offset="1" stop-color="#4D24E8"/>
</linearGradient>
<linearGradient id="paint6_linear" x1="34.5" y1="10" x2="34.5" y2="84" gradientUnits="userSpaceOnUse">
<stop stop-color="#BC42F0"/>
<stop offset="1" stop-color="#4D24E8"/>
</linearGradient>
<linearGradient id="paint7_linear" x1="34.5" y1="10" x2="34.5" y2="84" gradientUnits="userSpaceOnUse">
<stop stop-color="#BC42F0"/>
<stop offset="1" stop-color="#4D24E8"/>
</linearGradient>
<linearGradient id="paint8_linear" x1="34.5" y1="10" x2="34.5" y2="84" gradientUnits="userSpaceOnUse">
<stop stop-color="#BC42F0"/>
<stop offset="1" stop-color="#4D24E8"/>
</linearGradient>
<linearGradient id="paint9_linear" x1="34.5" y1="10" x2="34.5" y2="84" gradientUnits="userSpaceOnUse">
<stop stop-color="#BC42F0"/>
<stop offset="1" stop-color="#4D24E8"/>
</linearGradient>
<linearGradient id="paint10_linear" x1="34.5" y1="10" x2="34.5" y2="84" gradientUnits="userSpaceOnUse">
<stop stop-color="#BC42F0"/>
<stop offset="1" stop-color="#4D24E8"/>
</linearGradient>
</defs>
</svg>
